<svg width="48" height="48" viewBox="0 0 48 48" fill="none" xmlns="http://www.w3.org/2000/svg">
<path d="M11.08 39.0401C9.85997 39.0401 8.71997 38.6201 7.89997 37.8401C6.85997 36.8601 6.35997 35.3801 6.53997 33.7801L7.27997 27.3001C7.41997 26.0801 8.15997 24.4601 9.01997 23.5801L25.44 6.2001C29.54 1.8601 33.82 1.7401 38.16 5.8401C42.5 9.9401 42.62 14.2201 38.52 18.5601L22.1 35.9401C21.26 36.8401 19.7 37.6801 18.48 37.8801L12.04 38.9801C11.7 39.0001 11.4 39.0401 11.08 39.0401ZM31.86 5.8201C30.32 5.8201 28.98 6.7801 27.62 8.2201L11.2 25.6201C10.8 26.0401 10.34 27.0401 10.26 27.6201L9.51997 34.1001C9.43997 34.7601 9.59997 35.3001 9.95997 35.6401C10.32 35.9801 10.86 36.1001 11.52 36.0001L17.96 34.9001C18.54 34.8001 19.5 34.2801 19.9 33.8601L36.32 16.4801C38.8 13.8401 39.7 11.4001 36.08 8.0001C34.48 6.4601 33.1 5.8201 31.86 5.8201Z" fill="#FFCDDC"/>
<path d="M34.6799 21.9002C34.6399 21.9002 34.5799 21.9002 34.5399 21.9002C28.2999 21.2802 23.2799 16.5402 22.3199 10.3402C22.1999 9.52019 22.7599 8.76019 23.5799 8.62019C24.3999 8.50019 25.1599 9.06019 25.2999 9.88019C26.0599 14.7202 29.9799 18.4402 34.8599 18.9202C35.6799 19.0002 36.2799 19.7402 36.1999 20.5602C36.0999 21.3202 35.4399 21.9002 34.6799 21.9002Z" fill="#FFCDDC"/>
</svg>
