<svg width="1917" height="230" viewBox="0 0 1917 230" fill="none" xmlns="http://www.w3.org/2000/svg">
<path d="M1250.64 76.2203C1245.9 55.6802 1263.32 -0.698371 1328.18 14.2266C1399.03 30.5286 1450.42 152.368 1417.72 185.907C1384.45 220.023 1348.32 195.086 1324.58 150.766C1308.48 120.71 1262.24 126.466 1250.64 76.2203Z" fill="#580005" fill-opacity="0.64"/>
<path d="M1261.59 79.6969C1257.03 61.1877 1266.69 14.1941 1319.95 20.4952C1385.23 28.2173 1443.57 154.442 1411.9 182.582C1382.03 209.12 1348.38 181.568 1326.91 141.492C1312.35 114.311 1271.04 118.123 1261.59 79.6969Z" fill="#B31610" fill-opacity="0.4"/>
<path d="M1375.18 164.9C1384.26 166.847 1393.19 161.071 1395.14 151.999C1397.08 142.927 1391.31 133.995 1382.23 132.048C1373.16 130.101 1364.23 135.877 1362.28 144.949C1360.34 154.021 1366.11 162.953 1375.18 164.9Z" fill="white" fill-opacity="0.6"/>
<path d="M1376.17 160.284C1382.7 161.684 1389.12 157.53 1390.52 151.007C1391.92 144.483 1387.77 138.06 1381.24 136.66C1374.72 135.26 1368.3 139.413 1366.9 145.937C1365.5 152.46 1369.65 158.884 1376.17 160.284Z" fill="#580005" fill-opacity="0.64"/>
<path d="M1340.23 45.5494C1340.76 47.762 1339.4 49.9892 1337.19 50.5206L1284.52 63.1869C1282.31 63.7164 1280.08 62.3563 1279.55 60.144C1279.02 57.9287 1280.38 55.7038 1282.59 55.172L1335.26 42.5061C1337.48 41.9724 1339.7 43.3349 1340.23 45.5494Z" fill="#580005" fill-opacity="0.64"/>
<path d="M1388.39 101.462C1388.92 103.674 1387.56 105.899 1385.34 106.432L1332.68 119.099C1330.47 119.63 1328.24 118.268 1327.71 116.054C1327.18 113.841 1328.54 111.614 1330.75 111.082L1383.42 98.4161C1385.63 97.8865 1387.86 99.2472 1388.39 101.462Z" fill="#580005" fill-opacity="0.64"/>
<path d="M1370.39 68.2215C1370.92 70.4347 1369.56 72.6599 1367.35 73.1932L1296.46 89.9655C1294.24 90.4968 1292.02 89.1348 1291.49 86.9222C1290.95 84.7095 1292.32 82.4828 1294.53 81.9505L1365.42 65.1787C1367.63 64.6473 1369.86 66.0094 1370.39 68.2215Z" fill="#580005" fill-opacity="0.64"/>
<path d="M928.58 218.976C935.581 211.208 941.595 182.559 909.871 173.419C875.217 163.435 823.593 203.909 829.702 226.328C835.919 249.135 857.597 247.018 878.564 233.51C892.782 224.349 911.453 237.977 928.58 218.976Z" fill="#580005" fill-opacity="0.64"/>
<path d="M922.994 217.848C929.426 210.917 936.551 188.209 911.931 178.119C881.757 165.753 826.064 206.457 833.026 226.287C839.593 244.989 860.824 241.14 879.783 228.925C892.642 220.641 909.641 232.238 922.994 217.848Z" fill="#B31610" fill-opacity="0.4"/>
<path d="M853.21 227.457C848.806 226.117 846.322 221.462 847.662 217.058C849.001 212.654 853.657 210.171 858.061 211.51C862.464 212.85 864.948 217.505 863.608 221.909C862.269 226.312 857.613 228.796 853.21 227.457Z" fill="white" fill-opacity="0.6"/>
<path d="M853.89 225.216C850.723 224.253 848.937 220.905 849.9 217.738C850.864 214.572 854.212 212.785 857.379 213.749C860.546 214.712 862.332 218.06 861.369 221.227C860.406 224.394 857.057 226.18 853.89 225.216Z" fill="#580005" fill-opacity="0.64"/>
<path d="M897.103 184.104C896.339 184.936 896.393 186.229 897.226 186.993L917.02 205.166C917.854 205.928 919.146 205.874 919.908 205.042C920.673 204.21 920.619 202.917 919.787 202.154L899.992 183.981C899.159 183.216 897.866 183.271 897.103 184.104Z" fill="#580005" fill-opacity="0.64"/>
<path d="M862.754 196.762C861.99 197.593 862.046 198.886 862.878 199.651L882.673 217.824C883.504 218.587 884.797 218.532 885.56 217.699C886.324 216.867 886.27 215.574 885.439 214.81L865.643 196.637C864.81 195.874 863.516 195.928 862.754 196.762Z" fill="#580005" fill-opacity="0.64"/>
<path d="M878.564 186.677C877.799 187.509 877.854 188.801 878.686 189.566L905.397 213.907C906.23 214.671 907.523 214.616 908.286 213.784C909.049 212.952 908.994 211.658 908.164 210.895L881.452 186.554C880.619 185.79 879.326 185.845 878.564 186.677Z" fill="#580005" fill-opacity="0.64"/>
<path d="M832.241 123.911C842.328 126.671 870.621 119.161 864.521 86.7151C857.857 51.2731 798.493 23.3606 781.215 38.8982C763.639 54.706 775.277 73.1171 796.77 85.771C811.346 94.3513 807.568 117.157 832.241 123.911Z" fill="#580005" fill-opacity="0.64"/>
<path d="M830.737 118.414C839.821 121.043 863.307 117.196 861.249 90.6686C858.727 58.1568 797.328 26.714 782.747 41.8481C768.995 56.1233 781.978 73.357 801.414 84.7982C814.595 92.5596 811.88 112.958 830.737 118.414Z" fill="#B31610" fill-opacity="0.4"/>
<path d="M790.776 60.4023C789.992 55.8663 793.034 51.554 797.57 50.7704C802.105 49.9868 806.418 53.0287 807.201 57.5647C807.985 62.1007 804.943 66.4131 800.407 67.1966C795.871 67.9802 791.559 64.9383 790.776 60.4023Z" fill="white" fill-opacity="0.6"/>
<path d="M793.084 60.0036C792.52 56.7418 794.708 53.6408 797.969 53.0774C801.231 52.5139 804.332 54.7013 804.896 57.9631C805.459 61.2249 803.272 64.3259 800.01 64.8894C796.748 65.4529 793.647 63.2655 793.084 60.0036Z" fill="#580005" fill-opacity="0.64"/>
<path d="M849.236 80.1149C848.15 79.807 847.019 80.4367 846.711 81.5239L839.379 107.376C839.073 108.463 839.702 109.593 840.788 109.9C841.876 110.209 843.006 109.579 843.314 108.493L850.645 82.6398C850.954 81.5526 850.323 80.4226 849.236 80.1149Z" fill="#580005" fill-opacity="0.64"/>
<path d="M822.485 55.1256C821.399 54.8178 820.269 55.4484 819.961 56.5358L812.629 82.3878C812.321 83.4739 812.952 84.6039 814.039 84.9105C815.125 85.2195 816.256 84.5896 816.564 83.5035L823.896 57.6504C824.202 56.5633 823.572 55.4322 822.485 55.1256Z" fill="#580005" fill-opacity="0.64"/>
<path d="M838.602 64.713C837.515 64.404 836.385 65.0337 836.076 66.1209L826.345 100.924C826.037 102.012 826.668 103.141 827.754 103.449C828.84 103.757 829.971 103.126 830.279 102.041L840.01 67.2368C840.318 66.1498 839.687 65.0198 838.602 64.713Z" fill="#580005" fill-opacity="0.64"/>
<path d="M1028.98 27.1293C1038.72 23.3232 1067.64 27.816 1064.99 60.724C1062.09 96.6708 1005.99 130.673 987.175 117.039C968.033 103.167 977.67 83.6341 997.713 68.7894C1011.31 58.7234 1005.15 36.4416 1028.98 27.1293Z" fill="#580005" fill-opacity="0.64"/>
<path d="M1028.06 32.7538C1036.82 29.1838 1060.58 30.5392 1061.32 57.1362C1062.23 89.7333 1004.48 127.461 988.388 113.944C973.21 101.194 984.309 82.6903 1002.43 69.2681C1014.73 60.1631 1009.88 40.1634 1028.06 32.7538Z" fill="#B31610" fill-opacity="0.4"/>
<path d="M994.423 94.6461C994.121 99.2388 997.599 103.207 1002.19 103.509C1006.78 103.811 1010.75 100.333 1011.05 95.7401C1011.36 91.1474 1007.88 87.1794 1003.29 86.8773C998.693 86.5752 994.725 90.0534 994.423 94.6461Z" fill="white" fill-opacity="0.6"/>
<path d="M996.76 94.7996C996.542 98.1022 999.043 100.956 1002.35 101.173C1005.65 101.39 1008.5 98.8889 1008.72 95.5863C1008.94 92.2837 1006.44 89.4303 1003.13 89.2131C999.83 88.9958 996.977 91.497 996.76 94.7996Z" fill="#580005" fill-opacity="0.64"/>
<path d="M1050.48 68.8954C1049.44 69.3159 1048.24 68.8086 1047.82 67.7598L1037.81 42.8215C1037.39 41.7726 1037.9 40.5826 1038.95 40.1631C1040 39.7417 1041.19 40.249 1041.61 41.2968L1051.62 66.2362C1052.04 67.2849 1051.53 68.4751 1050.48 68.8954Z" fill="#580005" fill-opacity="0.64"/>
<path d="M1026.51 96.56C1025.46 96.9804 1024.27 96.4721 1023.85 95.4232L1013.84 70.4849C1013.42 69.4371 1013.93 68.247 1014.98 67.8278C1016.02 67.4062 1017.22 67.9136 1017.64 68.9614L1027.65 93.9008C1028.07 94.9496 1027.56 96.1407 1026.51 96.56Z" fill="#580005" fill-opacity="0.64"/>
<path d="M1041.53 85.3288C1040.48 85.7503 1039.29 85.243 1038.87 84.1943L1025.53 50.6082C1025.11 49.5594 1025.62 48.3695 1026.67 47.9491C1027.71 47.5287 1028.91 48.0371 1029.33 49.0836L1042.66 82.6708C1043.08 83.7194 1042.58 84.9095 1041.53 85.3288Z" fill="#580005" fill-opacity="0.64"/>
<path d="M689.234 201.705C680.879 207.994 651.812 211.461 645.503 179.055C638.61 143.656 683.475 95.7987 705.269 103.859C727.439 112.061 723.421 133.469 708.118 153.164C697.74 166.519 709.67 186.319 689.234 201.705Z" fill="#580005" fill-opacity="0.64"/>
<path d="M688.603 196.041C681.132 201.838 657.884 206.934 650.003 181.521C640.343 150.375 685.796 98.4853 704.935 107.167C722.985 115.356 717.282 136.166 703.443 153.974C694.059 166.054 704.113 184.008 688.603 196.041Z" fill="#B31610" fill-opacity="0.4"/>
<path d="M704.323 127.375C703.376 122.87 698.957 119.985 694.453 120.932C689.948 121.878 687.064 126.297 688.01 130.802C688.956 135.307 693.375 138.191 697.88 137.245C702.385 136.299 705.269 131.88 704.323 127.375Z" fill="white" fill-opacity="0.6"/>
<path d="M702.031 127.856C701.35 124.617 698.172 122.542 694.933 123.223C691.694 123.903 689.619 127.081 690.3 130.321C690.98 133.56 694.158 135.635 697.398 134.954C700.637 134.274 702.711 131.096 702.031 127.856Z" fill="#580005" fill-opacity="0.64"/>
<path d="M657.271 167.278C658.166 166.591 659.45 166.759 660.137 167.655L676.496 188.974C677.182 189.871 677.014 191.154 676.118 191.84C675.221 192.528 673.939 192.36 673.252 191.465L656.893 170.145C656.205 169.248 656.374 167.965 657.271 167.278Z" fill="#580005" fill-opacity="0.64"/>
<path d="M672.905 134.178C673.801 133.491 675.084 133.66 675.772 134.556L692.131 155.875C692.818 156.771 692.649 158.054 691.752 158.74C690.856 159.428 689.573 159.26 688.886 158.365L672.527 137.045C671.841 136.148 672.008 134.864 672.905 134.178Z" fill="#580005" fill-opacity="0.64"/>
<path d="M661.467 149.038C662.363 148.35 663.646 148.518 664.334 149.414L686.227 178.166C686.915 179.063 686.746 180.346 685.85 181.033C684.954 181.72 683.67 181.551 682.983 180.657L661.09 151.904C660.403 151.007 660.572 149.724 661.467 149.038Z" fill="#580005" fill-opacity="0.64"/>
<path d="M174.42 89.6296C174.628 79.1745 160.424 53.5783 130.456 67.4321C97.722 82.5647 85.1827 146.954 104.475 159.906C124.103 173.08 139.107 157.29 146.118 133.355C150.871 117.123 173.907 115.206 174.42 89.6296Z" fill="#580005" fill-opacity="0.64"/>
<path d="M169.458 92.433C169.785 82.9825 160.308 61.1512 135.09 69.6371C104.184 80.0371 88.7193 147.263 106.961 157.699C124.167 167.54 137.7 150.734 144.038 129.09C148.339 114.41 168.781 112.052 169.458 92.433Z" fill="#B31610" fill-opacity="0.4"/>
<path d="M122.987 145.373C118.781 147.242 113.856 145.348 111.986 141.142C110.117 136.936 112.011 132.011 116.217 130.141C120.423 128.272 125.348 130.166 127.218 134.372C129.087 138.578 127.193 143.503 122.987 145.373Z" fill="white" fill-opacity="0.6"/>
<path d="M122.036 143.233C119.011 144.577 115.47 143.215 114.125 140.19C112.781 137.166 114.143 133.624 117.168 132.28C120.192 130.935 123.734 132.298 125.078 135.322C126.422 138.347 125.06 141.888 122.036 143.233Z" fill="#580005" fill-opacity="0.64"/>
<path d="M127.797 83.8671C127.764 84.9955 128.651 85.9382 129.781 85.9705L156.641 86.7541C157.77 86.7856 158.711 85.8986 158.743 84.7705C158.777 83.6406 157.89 82.699 156.761 82.6663L129.9 81.8831C128.77 81.8497 127.829 82.7378 127.797 83.8671Z" fill="#580005" fill-opacity="0.64"/>
<path d="M110.112 115.919C110.079 117.047 110.967 117.989 112.097 118.022L138.957 118.805C140.086 118.838 141.027 117.95 141.058 116.821C141.092 115.692 140.205 114.75 139.076 114.717L112.215 113.934C111.086 113.902 110.143 114.79 110.112 115.919Z" fill="#580005" fill-opacity="0.64"/>
<path d="M115.465 97.9469C115.431 99.0758 116.318 100.018 117.448 100.051L153.575 100.971C154.704 101.003 155.645 100.115 155.678 98.987C155.711 97.8586 154.822 96.9163 153.695 96.8831L117.567 95.9633C116.438 95.9309 115.497 96.8189 115.465 97.9469Z" fill="#580005" fill-opacity="0.64"/>
<path d="M1587.64 27.5986C1577.49 25.1031 1549.4 33.3513 1556.35 65.6265C1563.94 100.882 1624.01 127.232 1640.88 111.247C1658.03 94.9849 1645.92 76.8847 1624.1 64.7975C1609.3 56.6015 1612.48 33.7051 1587.64 27.5986Z" fill="#580005" fill-opacity="0.64"/>
<path d="M1589.29 33.054C1580.14 30.6635 1556.76 35.1238 1559.51 61.5883C1562.89 94.023 1625.09 123.848 1639.27 108.338C1652.64 93.7078 1639.21 76.8198 1619.48 65.891C1606.1 58.4772 1608.28 38.0149 1589.29 33.054Z" fill="#B31610" fill-opacity="0.4"/>
<path d="M1630.75 89.9995C1631.66 94.513 1628.73 98.9031 1624.22 99.8051C1619.7 100.707 1615.31 97.7793 1614.41 93.2657C1613.51 88.7522 1616.44 84.3621 1620.95 83.4601C1625.46 82.5582 1629.85 85.4859 1630.75 89.9995Z" fill="white" fill-opacity="0.6"/>
<path d="M1628.46 90.4582C1629.11 93.7039 1627 96.8608 1623.76 97.5094C1620.51 98.158 1617.35 96.0527 1616.7 92.807C1616.06 89.5613 1618.16 86.4044 1621.41 85.7558C1624.65 85.1072 1627.81 87.2126 1628.46 90.4582Z" fill="#580005" fill-opacity="0.64"/>
<path d="M1571.8 71.8255C1572.89 72.1049 1574.01 71.4457 1574.29 70.3508L1580.94 44.314C1581.22 43.2192 1580.56 42.106 1579.47 41.8276C1578.37 41.5473 1577.26 42.2064 1576.98 43.3003L1570.33 69.3381C1570.04 70.4331 1570.71 71.5463 1571.8 71.8255Z" fill="#580005" fill-opacity="0.64"/>
<path d="M1599.2 96.1062C1600.29 96.3856 1601.4 95.7256 1601.68 94.6304L1608.34 68.5937C1608.61 67.4998 1607.95 66.3866 1606.86 66.1085C1605.77 65.8281 1604.65 66.4874 1604.37 67.5812L1597.72 93.6191C1597.44 94.7139 1598.1 95.8282 1599.2 96.1062Z" fill="#580005" fill-opacity="0.64"/>
<path d="M1582.83 86.9422C1583.93 87.2227 1585.04 86.5636 1585.32 85.4687L1594.14 50.4224C1594.42 49.3274 1593.76 48.2145 1592.66 47.9351C1591.57 47.6558 1590.46 48.316 1590.18 49.4086L1581.36 84.4561C1581.08 85.5508 1581.74 86.6639 1582.83 86.9422Z" fill="#580005" fill-opacity="0.64"/>
</svg>
