<svg width="85" height="85" viewBox="0 0 85 85" fill="none" xmlns="http://www.w3.org/2000/svg">
<path d="M46.041 52.2397H42.4993C41.0472 52.2397 39.843 51.0356 39.843 49.5835C39.843 48.1314 41.0472 46.9272 42.4993 46.9272H46.041C48.4847 46.9272 50.468 44.9439 50.468 42.5002V9.73975H21.2493C17.0701 9.73975 13.245 12.0064 11.1909 15.6543C10.4825 16.9293 8.85351 17.3898 7.57851 16.6815C6.30351 15.9732 5.84296 14.3439 6.55129 13.0689C9.52629 7.75642 15.1576 4.42725 21.2493 4.42725H53.1243C54.5764 4.42725 55.7805 5.63141 55.7805 7.0835V42.5002C55.7805 47.8835 51.4243 52.2397 46.041 52.2397Z" fill="#292D32"/>
<path d="M67.2913 73.4897H63.7497C62.2976 73.4897 61.0934 72.2856 61.0934 70.8335C61.0934 68.3898 59.1101 66.4064 56.6663 66.4064C54.2226 66.4064 52.2393 68.3898 52.2393 70.8335C52.2393 72.2856 51.0351 73.4897 49.583 73.4897H35.4163C33.9643 73.4897 32.7601 72.2856 32.7601 70.8335C32.7601 68.3898 30.7768 66.4064 28.333 66.4064C25.8893 66.4064 23.9059 68.3898 23.9059 70.8335C23.9059 72.2856 22.7018 73.4897 21.2497 73.4897H17.708C10.3768 73.4897 4.42676 67.5397 4.42676 60.2085C4.42676 58.7564 5.63092 57.5522 7.08301 57.5522C8.53509 57.5522 9.73926 58.7564 9.73926 60.2085C9.73926 64.6002 13.3163 68.1772 17.708 68.1772H18.9475C20.1163 64.1043 23.8705 61.0939 28.333 61.0939C32.7955 61.0939 36.5498 64.1043 37.7185 68.1772H47.3163C48.485 64.1043 52.2393 61.0939 56.7018 61.0939C61.1643 61.0939 64.9183 64.1043 66.0871 68.1772H67.2913C71.683 68.1772 75.2601 64.6002 75.2601 60.2085V52.2397H67.2913C63.8913 52.2397 61.0934 49.4418 61.0934 46.0418V35.4168C61.0934 32.0168 63.8559 29.2189 67.2913 29.2189L63.5017 22.596C62.7226 21.2148 61.2352 20.3647 59.6414 20.3647H55.7809V42.5002C55.7809 47.8835 51.4247 52.2397 46.0413 52.2397H42.4997C41.0476 52.2397 39.8434 51.0356 39.8434 49.5835C39.8434 48.1314 41.0476 46.9272 42.4997 46.9272H46.0413C48.4851 46.9272 50.4684 44.9439 50.4684 42.5002V17.7085C50.4684 16.2564 51.6726 15.0522 53.1247 15.0522H59.6414C63.1477 15.0522 66.3704 16.9294 68.1059 19.9752L74.1622 30.5648C74.6226 31.3793 74.6226 32.4064 74.1622 33.221C73.7018 34.0356 72.8163 34.5314 71.86 34.5314H67.2913C66.7955 34.5314 66.4059 34.921 66.4059 35.4168V46.0418C66.4059 46.5377 66.7955 46.9272 67.2913 46.9272H77.9163C79.3684 46.9272 80.5726 48.1314 80.5726 49.5835V60.2085C80.5726 67.5397 74.6226 73.4897 67.2913 73.4897Z" fill="#292D32"/>
<path d="M28.3333 80.5729C22.95 80.5729 18.5938 76.2167 18.5938 70.8333C18.5938 65.45 22.95 61.0938 28.3333 61.0938C33.7167 61.0938 38.0729 65.45 38.0729 70.8333C38.0729 76.2167 33.7167 80.5729 28.3333 80.5729ZM28.3333 66.4062C25.8896 66.4062 23.9063 68.3896 23.9063 70.8333C23.9063 73.2771 25.8896 75.2604 28.3333 75.2604C30.7771 75.2604 32.7604 73.2771 32.7604 70.8333C32.7604 68.3896 30.7771 66.4062 28.3333 66.4062Z" fill="#292D32"/>
<path d="M56.6663 80.5729C51.283 80.5729 46.9268 76.2167 46.9268 70.8333C46.9268 65.45 51.283 61.0938 56.6663 61.0938C62.0497 61.0938 66.4059 65.45 66.4059 70.8333C66.4059 76.2167 62.0497 80.5729 56.6663 80.5729ZM56.6663 66.4062C54.2226 66.4062 52.2393 68.3896 52.2393 70.8333C52.2393 73.2771 54.2226 75.2604 56.6663 75.2604C59.1101 75.2604 61.0934 73.2771 61.0934 70.8333C61.0934 68.3896 59.1101 66.4062 56.6663 66.4062Z" fill="#292D32"/>
<path d="M77.9167 52.2396H67.2917C63.8917 52.2396 61.0938 49.4417 61.0938 46.0417V35.4167C61.0938 32.0167 63.8917 29.2188 67.2917 29.2188H71.8603C72.8166 29.2188 73.7021 29.7146 74.1625 30.5646L80.2188 41.1896C80.4313 41.5792 80.5729 42.0396 80.5729 42.5V49.5833C80.5729 51.0354 79.3687 52.2396 77.9167 52.2396ZM67.2917 34.5312C66.7958 34.5312 66.4062 34.9208 66.4062 35.4167V46.0417C66.4062 46.5375 66.7958 46.9271 67.2917 46.9271H75.2604V43.2084L70.302 34.5312H67.2917Z" fill="#292D32"/>
<path d="M28.333 30.9897H7.08301C5.63092 30.9897 4.42676 29.7856 4.42676 28.3335C4.42676 26.8814 5.63092 25.6772 7.08301 25.6772H28.333C29.7851 25.6772 30.9893 26.8814 30.9893 28.3335C30.9893 29.7856 29.7851 30.9897 28.333 30.9897Z" fill="#292D32"/>
<path d="M21.2497 41.6147H7.08301C5.63092 41.6147 4.42676 40.4106 4.42676 38.9585C4.42676 37.5064 5.63092 36.3022 7.08301 36.3022H21.2497C22.7018 36.3022 23.9059 37.5064 23.9059 38.9585C23.9059 40.4106 22.7018 41.6147 21.2497 41.6147Z" fill="#292D32"/>
<path d="M14.1663 52.2397H7.08301C5.63092 52.2397 4.42676 51.0356 4.42676 49.5835C4.42676 48.1314 5.63092 46.9272 7.08301 46.9272H14.1663C15.6184 46.9272 16.8226 48.1314 16.8226 49.5835C16.8226 51.0356 15.6184 52.2397 14.1663 52.2397Z" fill="#292D32"/>
</svg>
