<svg width="85" height="85" viewBox="0 0 85 85" fill="none" xmlns="http://www.w3.org/2000/svg">
<path d="M56.666 79.05C55.4619 79.05 54.2932 78.6959 53.2661 78.023L38.1785 67.9645H31.4848C30.6703 67.9645 29.891 67.575 29.3952 66.9375C28.8993 66.2646 28.7223 65.4145 28.9348 64.6353C29.1473 63.7853 29.2536 62.9354 29.2536 62.0145C29.2536 59.1812 28.1911 56.4542 26.2786 54.3292C24.1182 51.8854 21.0369 50.5041 17.7432 50.5041C14.5911 50.5041 11.6869 51.7436 9.49102 53.9749C8.8181 54.6832 7.79105 54.9312 6.87022 54.6833C5.94939 54.3999 5.20564 53.6562 4.99314 52.6999C4.63898 51.1416 4.46191 49.4416 4.46191 47.5999V26.3499C4.46191 14.1666 12.6432 5.98535 24.8265 5.98535H60.2432C72.4265 5.98535 80.6077 14.1666 80.6077 26.3499V47.5999C80.6077 53.5145 78.6598 58.6144 74.9411 62.3332C71.8244 65.4498 67.6807 67.3271 62.8994 67.8229V72.852C62.8994 75.1541 61.6243 77.2437 59.6056 78.3416C58.6493 78.802 57.6577 79.05 56.666 79.05ZM34.5306 62.6166H38.9577C39.489 62.6166 39.9848 62.7583 40.4453 63.077L56.2056 73.5959C56.5952 73.8438 56.9139 73.7374 57.091 73.6311C57.2681 73.5249 57.5869 73.3124 57.5869 72.8166V65.2728C57.5869 63.8207 58.7911 62.6166 60.2432 62.6166C64.7411 62.6166 68.5307 61.2 71.1869 58.5438C73.8786 55.8521 75.2952 52.0624 75.2952 47.5645V26.3145C75.2952 17.177 69.3807 11.2624 60.2432 11.2624H24.8265C15.689 11.2624 9.77441 17.177 9.77441 26.3145V47.1395C12.1827 45.8291 14.9098 45.1562 17.7432 45.1562C22.5598 45.1562 27.1286 47.2104 30.2452 50.7521C33.0077 53.8333 34.5661 57.7999 34.5661 61.9791C34.5307 62.1916 34.5306 62.4041 34.5306 62.6166Z" fill="#292D32"/>
<path d="M17.7087 78.8021C8.42949 78.8021 0.885742 71.2583 0.885742 61.9792C0.885742 56.8083 3.18782 52.027 7.1899 48.8395C10.1649 46.4666 13.9191 45.1562 17.7087 45.1562C26.9878 45.1562 34.5316 52.7 34.5316 61.9792C34.5316 66.7958 32.442 71.4 28.7941 74.5875C25.7128 77.3146 21.7816 78.8021 17.7087 78.8021ZM17.7087 50.4688C15.0878 50.4688 12.6087 51.3541 10.5191 53.0186C7.792 55.1791 6.19824 58.4729 6.19824 61.9792C6.19824 68.3188 11.3691 73.4896 17.7087 73.4896C20.4712 73.4896 23.1628 72.4625 25.3232 70.6208C27.8024 68.425 29.2191 65.3083 29.2191 61.9792C29.2191 55.6396 24.0482 50.4688 17.7087 50.4688Z" fill="#292D32"/>
<path d="M14.1665 68.1772C13.281 68.1772 12.3956 67.7169 11.8997 66.9023C11.156 65.6273 11.5456 63.998 12.8206 63.2543L15.9727 61.3773V57.5522C15.9727 56.1002 17.1769 54.896 18.629 54.896C20.0811 54.896 21.2852 56.1002 21.2852 57.5522V62.8647C21.2852 63.7856 20.7893 64.6711 20.0102 65.1315L15.5831 67.7877C15.0873 68.0711 14.6269 68.1772 14.1665 68.1772Z" fill="#292D32"/>
<path d="M54.8962 39.8438H30.1045C28.6524 39.8438 27.4482 38.6396 27.4482 37.1875C27.4482 35.7354 28.6524 34.5312 30.1045 34.5312H54.8962C56.3482 34.5312 57.5524 35.7354 57.5524 37.1875C57.5524 38.6396 56.3482 39.8438 54.8962 39.8438Z" fill="#292D32"/>
</svg>
