<svg width="85" height="85" viewBox="0 0 85 85" fill="none" xmlns="http://www.w3.org/2000/svg">
<path d="M18.3808 22.5959C17.7079 22.5959 16.9995 22.3126 16.5037 21.8168C15.4766 20.7897 15.4766 19.0897 16.5037 18.0626L29.36 5.20635C30.387 4.17926 32.087 4.17926 33.1141 5.20635C34.1412 6.23343 34.1412 7.93343 33.1141 8.96051L20.2579 21.8168C19.7266 22.3126 19.0537 22.5959 18.3808 22.5959Z" fill="#292D32"/>
<path d="M66.6189 22.5959C65.946 22.5959 65.273 22.348 64.7418 21.8168L51.8855 8.96051C50.8585 7.93343 50.8585 6.23343 51.8855 5.20635C52.9126 4.17926 54.6126 4.17926 55.6397 5.20635L68.496 18.0626C69.523 19.0897 69.523 20.7897 68.496 21.8168C68.0001 22.3126 67.2918 22.5959 66.6189 22.5959Z" fill="#292D32"/>
<path d="M71.5768 37.5417C71.3288 37.5417 71.0809 37.5417 70.833 37.5417H70.0184H14.1663C11.6872 37.5771 8.85384 37.5771 6.79967 35.5229C5.17051 33.9292 4.42676 31.45 4.42676 27.8021C4.42676 18.0625 11.5455 18.0625 14.9455 18.0625H70.0538C73.4538 18.0625 80.5726 18.0625 80.5726 27.8021C80.5726 31.4854 79.8288 33.9292 78.1997 35.5229C76.358 37.3646 73.8788 37.5417 71.5768 37.5417ZM14.9455 32.2292H70.8684C72.4622 32.2646 73.9497 32.2646 74.4455 31.7688C74.6934 31.5208 75.2247 30.6708 75.2247 27.8021C75.2247 23.8 74.233 23.375 70.0184 23.375H14.9455C10.7309 23.375 9.73926 23.8 9.73926 27.8021C9.73926 30.6708 10.3059 31.5208 10.5184 31.7688C11.0143 32.2292 12.5372 32.2292 14.0955 32.2292H14.9455Z" fill="#292D32"/>
<path d="M34.5664 64.8127C33.1143 64.8127 31.9102 63.6085 31.9102 62.1564V49.5835C31.9102 48.1314 33.1143 46.9272 34.5664 46.9272C36.0185 46.9272 37.2227 48.1314 37.2227 49.5835V62.1564C37.2227 63.6439 36.0185 64.8127 34.5664 64.8127Z" fill="#292D32"/>
<path d="M50.8584 64.8127C49.4063 64.8127 48.2021 63.6085 48.2021 62.1564V49.5835C48.2021 48.1314 49.4063 46.9272 50.8584 46.9272C52.3105 46.9272 53.5146 48.1314 53.5146 49.5835V62.1564C53.5146 63.6439 52.3105 64.8127 50.8584 64.8127Z" fill="#292D32"/>
<path d="M52.7357 80.5729H31.3795C18.7003 80.5729 15.867 73.0291 14.7691 66.4771L9.77531 35.8417C9.52739 34.3896 10.5191 33.0437 11.9711 32.7958C13.4232 32.5479 14.7691 33.5396 15.017 34.9917L20.0107 65.5916C21.0378 71.8604 23.1628 75.2604 31.3795 75.2604H52.7357C61.8378 75.2604 62.8649 72.0729 64.0336 65.9104L69.9836 34.9208C70.267 33.4687 71.6482 32.5125 73.1003 32.8312C74.5524 33.1146 75.4732 34.4958 75.1899 35.9479L69.2399 66.9375C67.8586 74.1271 65.5566 80.5729 52.7357 80.5729Z" fill="#292D32"/>
</svg>
