<svg width="30" height="26" viewBox="0 0 30 26" fill="none" xmlns="http://www.w3.org/2000/svg">
<path d="M26.6462 1.16673C26.6462 1.16673 29.3401 0.114642 29.1156 2.6697C29.0408 3.7218 28.3673 7.40409 27.8435 11.387L26.0476 23.1854C26.0476 23.1854 25.8979 24.9138 24.5509 25.2144C23.204 25.515 21.1836 24.1624 20.8094 23.8617C20.51 23.6363 15.1971 20.2546 13.3263 18.6013C12.8024 18.1504 12.2038 17.2486 13.4011 16.1965L21.2584 8.68166C22.1564 7.77986 23.0543 5.67569 19.3127 8.23076L8.83643 15.3699C8.83643 15.3699 7.63914 16.1214 5.39425 15.4451L0.530204 13.9421C0.530204 13.9421 -1.26574 12.8149 1.80233 11.6876C9.28545 8.15555 18.4897 4.5484 26.6462 1.16673Z" fill="#FF709A" fill-opacity="0.7"/>
</svg>
