<svg width="500" height="500" viewBox="0 0 500 500" fill="#ffdee7" xmlns="http://www.w3.org/2000/svg">
<g clip-path="url(#clip0_836_130)">
<path d="M41.4798 231.51H43.1098H72.2298L68.2198 224.81H37.0498L41.4798 231.51Z" fill="#ffdee7"/>
<path d="M77.2899 239.95L73.2699 233.25H42.6299L47.0599 239.95H77.2899Z" fill="#ffdee7"/>
<path d="M83.3898 250.13H53.7898L58.7798 257.67H87.9098L83.3898 250.13Z" fill="#ffdee7"/>
<path d="M78.3297 241.69H48.2097L52.6397 248.39H82.3497L78.3297 241.69Z" fill="#ffdee7"/>
<path d="M37.7798 223.07H67.1798L62.5598 215.37H30.7998L35.8998 223.07H37.7798Z" fill="#ffdee7"/>
<path d="M154.05 207.29C153.23 205.77 151.71 204.86 149.99 204.86H15.7599C14.0399 204.86 12.5199 205.77 11.6999 207.29C10.8799 208.81 10.9599 210.58 11.9099 212.02L79.0199 313.95C79.8799 315.25 81.3199 316.03 82.8699 316.03C84.4299 316.03 85.8699 315.25 86.7199 313.95L153.83 212.02C154.79 210.57 154.87 208.8 154.05 207.29ZM151.82 210.68L84.7099 312.61C84.2999 313.24 83.6299 313.6 82.8699 313.6C82.1199 313.6 81.4499 313.24 81.0299 312.61L13.9199 210.68C13.4699 209.99 13.4299 209.15 13.8199 208.43C14.2099 207.71 14.9299 207.27 15.7599 207.27H149.99C150.81 207.27 151.54 207.7 151.93 208.43C152.31 209.15 152.28 210 151.82 210.68Z" fill="#ffdee7"/>
<path d="M145.8 208.57H19.94C18.87 208.57 17.88 209.16 17.37 210.1C16.86 211.05 16.91 212.19 17.5 213.09L80.43 308.66C80.97 309.48 81.88 309.97 82.87 309.97C83.85 309.97 84.77 309.48 85.31 308.66L148.24 213.09C148.83 212.19 148.88 211.05 148.37 210.1C147.86 209.16 146.88 208.57 145.8 208.57ZM146.22 211.77L83.29 307.34C83.16 307.54 82.97 307.57 82.87 307.57C82.77 307.57 82.58 307.54 82.45 307.34L65.15 281.07L96.09 276.75L137.01 215.37L104.78 220.03L84.84 249.84L90.72 259.83H78.16L64.56 280.16L19.52 211.76C19.38 211.54 19.44 211.34 19.5 211.24C19.55 211.14 19.68 210.97 19.94 210.97H145.8C146.06 210.97 146.19 211.14 146.24 211.24C146.3 211.35 146.37 211.55 146.22 211.77Z" fill="#ffdee7"/>
<path d="M201.47 300.89H205.57V310.35H206.32V300.89H210.42V300.14H201.47V300.89Z" fill="#ffdee7"/>
<path d="M232.8 300.67C232 300.19 231.11 299.96 230.14 299.96C229.17 299.96 228.28 300.2 227.48 300.67C226.68 301.15 226.04 301.78 225.57 302.58C225.09 303.38 224.86 304.27 224.86 305.24C224.86 306.21 225.1 307.1 225.57 307.9C226.05 308.7 226.68 309.34 227.48 309.81C228.28 310.29 229.17 310.52 230.14 310.52C231.11 310.52 232 310.28 232.8 309.81C233.6 309.33 234.24 308.7 234.71 307.9C235.19 307.1 235.42 306.21 235.42 305.24C235.42 304.27 235.18 303.38 234.71 302.58C234.24 301.79 233.6 301.15 232.8 300.67ZM234.05 307.53C233.64 308.22 233.1 308.76 232.41 309.17C231.72 309.58 230.96 309.78 230.13 309.78C229.3 309.78 228.54 309.58 227.85 309.17C227.16 308.76 226.62 308.22 226.21 307.53C225.8 306.84 225.6 306.08 225.6 305.25C225.6 304.42 225.8 303.66 226.21 302.97C226.62 302.28 227.16 301.74 227.85 301.33C228.54 300.92 229.3 300.72 230.13 300.72C230.96 300.72 231.72 300.92 232.41 301.33C233.1 301.74 233.64 302.29 234.05 302.97C234.46 303.66 234.66 304.42 234.66 305.25C234.66 306.08 234.46 306.84 234.05 307.53Z" fill="#ffdee7"/>
<path d="M258.73 300.65C257.93 300.17 257.04 299.94 256.07 299.94C255.15 299.94 254.3 300.15 253.54 300.58C252.78 301.01 252.15 301.58 251.67 302.31C251.19 303.03 250.9 303.85 250.81 304.75C250.8 304.94 250.79 308.63 250.79 315.82H251.55V308.02C252.31 308.96 253.04 309.61 253.76 309.97C254.47 310.33 255.24 310.51 256.08 310.51C257.05 310.51 257.94 310.27 258.74 309.79C259.54 309.31 260.18 308.67 260.65 307.87C261.12 307.07 261.36 306.19 261.36 305.22C261.36 304.25 261.12 303.36 260.65 302.56C260.18 301.76 259.53 301.13 258.73 300.65ZM259.99 307.49C259.58 308.18 259.04 308.72 258.35 309.13C257.66 309.54 256.9 309.74 256.07 309.74C255.24 309.74 254.48 309.54 253.79 309.13C253.1 308.72 252.56 308.17 252.15 307.49C251.74 306.8 251.54 306.05 251.54 305.22C251.54 304.39 251.74 303.63 252.15 302.94C252.56 302.25 253.1 301.71 253.79 301.3C254.48 300.89 255.24 300.69 256.07 300.69C256.9 300.69 257.66 300.89 258.35 301.3C259.04 301.71 259.58 302.26 259.99 302.94C260.4 303.63 260.6 304.39 260.6 305.22C260.59 306.05 260.39 306.81 259.99 307.49Z" fill="#ffdee7"/>
<path d="M276.63 310.35H277.39V300.89H282.2V300.14H276.63V310.35Z" fill="#ffdee7"/>
<path d="M304.87 300.67C304.07 300.19 303.18 299.96 302.21 299.96C301.24 299.96 300.35 300.2 299.55 300.67C298.75 301.15 298.11 301.78 297.64 302.58C297.17 303.38 296.93 304.27 296.93 305.24C296.93 306.21 297.17 307.1 297.64 307.9C298.11 308.7 298.75 309.34 299.55 309.81C300.35 310.29 301.24 310.52 302.21 310.52C303.18 310.52 304.07 310.28 304.87 309.81C305.67 309.33 306.31 308.7 306.78 307.9C307.25 307.1 307.49 306.21 307.49 305.24C307.49 304.27 307.25 303.38 306.78 302.58C306.31 301.78 305.67 301.15 304.87 300.67ZM306.13 307.53C305.72 308.22 305.18 308.76 304.49 309.17C303.8 309.58 303.04 309.78 302.21 309.78C301.38 309.78 300.62 309.58 299.93 309.17C299.24 308.76 298.7 308.22 298.29 307.53C297.88 306.84 297.68 306.08 297.68 305.25C297.68 304.42 297.88 303.66 298.29 302.97C298.7 302.28 299.24 301.74 299.93 301.33C300.62 300.92 301.38 300.72 302.21 300.72C303.04 300.72 303.8 300.92 304.49 301.33C305.18 301.74 305.72 302.29 306.13 302.97C306.54 303.66 306.74 304.42 306.74 305.25C306.74 306.08 306.53 306.84 306.13 307.53Z" fill="#ffdee7"/>
<path d="M329.57 304.01C330 303.43 330.21 302.9 330.21 302.41C330.21 301.98 330.1 301.59 329.89 301.24C329.68 300.91 329.41 300.64 329.07 300.44C328.73 300.24 328.35 300.14 327.94 300.14H322.85V310.35H328.69C329.18 310.35 329.64 310.25 330.06 310.05C330.48 309.85 330.84 309.57 331.14 309.22C331.65 308.63 331.9 307.93 331.9 307.13C331.9 306.33 331.65 305.64 331.14 305.04C330.8 304.62 330.27 304.28 329.57 304.01ZM323.62 300.89H327.94C328.35 300.89 328.71 301.04 329 301.33C329.29 301.62 329.44 301.98 329.44 302.4C329.44 302.81 329.29 303.17 329 303.46C328.71 303.75 328.35 303.9 327.94 303.9H323.62V300.89ZM330.44 308.87C329.96 309.35 329.38 309.59 328.7 309.59H323.62V304.67H328.7C329.38 304.67 329.96 304.91 330.44 305.39C330.92 305.87 331.16 306.45 331.16 307.13C331.16 307.81 330.92 308.4 330.44 308.87Z" fill="#ffdee7"/>
<path d="M358.93 300.14H358.17V310.35H358.93V300.14Z" fill="#ffdee7"/>
<path d="M353.46 304.12C353.1 303.98 352.72 303.91 352.32 303.91H347.96V300.14H347.2V310.35H352.32C352.81 310.35 353.26 310.25 353.69 310.05C354.11 309.85 354.47 309.57 354.77 309.22C355.29 308.63 355.54 307.93 355.54 307.13C355.54 306.33 355.28 305.64 354.77 305.04C354.41 304.62 353.97 304.32 353.46 304.12ZM354.05 308.87C353.57 309.35 352.99 309.59 352.31 309.59H347.95V304.67H352.31C352.99 304.67 353.57 304.91 354.05 305.39C354.53 305.87 354.77 306.45 354.77 307.13C354.77 307.81 354.53 308.4 354.05 308.87Z" fill="#ffdee7"/>
<path d="M383.11 305.72C383.11 306.7 382.78 307.56 382.13 308.3C381.78 308.7 381.35 309.01 380.85 309.25C380.35 309.48 379.82 309.6 379.24 309.6C378.17 309.6 377.26 309.22 376.51 308.47C375.76 307.71 375.38 306.8 375.38 305.73V300.14H374.62V305.73C374.62 306.9 375 307.92 375.77 308.78C376.2 309.27 376.71 309.66 377.31 309.94C377.91 310.22 378.55 310.35 379.25 310.35C379.94 310.35 380.59 310.21 381.19 309.94C381.79 309.66 382.43 309.13 383.13 308.34V310.35H383.88V300.14H383.13V305.72H383.11Z" fill="#ffdee7"/>
<path d="M379.07 297.55C379.84 297.55 380.51 297.29 381.08 296.78C381.64 296.27 381.96 295.71 382.03 295.09H381.26C381.19 295.51 380.94 295.9 380.53 296.25C380.12 296.6 379.63 296.78 379.08 296.78C378.52 296.78 378.03 296.6 377.63 296.25C377.22 295.9 376.98 295.51 376.89 295.09H376.12C376.19 295.7 376.51 296.26 377.07 296.78C377.61 297.29 378.28 297.55 379.07 297.55Z" fill="#ffdee7"/>
<path d="M428.15 301.98C427.67 301.4 427.09 300.95 426.41 300.61C425.73 300.27 424.99 300.11 424.2 300.11C423.26 300.11 422.41 300.34 421.63 300.8C420.86 301.26 420.24 301.88 419.78 302.65C419.32 303.42 419.09 304.28 419.09 305.22C419.09 306.63 419.59 307.84 420.61 308.85C421.07 309.31 421.61 309.67 422.23 309.93C422.85 310.19 423.5 310.32 424.2 310.32C424.9 310.32 425.56 310.19 426.17 309.93C426.79 309.67 427.33 309.31 427.79 308.85C427.92 308.72 428.17 308.43 428.54 307.98V310.72C428.54 311.52 428.34 312.24 427.95 312.9C427.56 313.56 427.03 314.08 426.37 314.48C425.71 314.87 424.98 315.07 424.19 315.07C423.07 315.07 422.15 314.75 421.44 314.1L420.91 314.63C421.25 314.95 421.71 315.23 422.3 315.47C422.89 315.71 423.52 315.83 424.19 315.83C425.32 315.83 426.34 315.49 427.24 314.8C428.15 314.11 428.77 313.22 429.11 312.11C429.24 311.65 429.3 311.19 429.3 310.73V305.23C429.3 304.61 429.2 304.03 429 303.48C428.8 302.93 428.52 302.43 428.15 301.98ZM428.16 307.03C427.95 307.49 427.71 307.86 427.44 308.12C427.03 308.57 426.55 308.92 426 309.18C425.45 309.44 424.84 309.57 424.2 309.57C423.56 309.57 422.96 309.44 422.4 309.18C421.84 308.92 421.36 308.57 420.96 308.12C420.69 307.85 420.46 307.49 420.24 307.03C419.98 306.47 419.85 305.87 419.85 305.23C419.85 304.43 420.05 303.7 420.44 303.04C420.83 302.38 421.35 301.86 422.01 301.46C422.67 301.07 423.4 300.87 424.2 300.87C425 300.87 425.72 301.07 426.38 301.46C427.04 301.85 427.57 302.38 427.96 303.04C428.35 303.7 428.55 304.43 428.55 305.23C428.55 305.87 428.42 306.47 428.16 307.03Z" fill="#ffdee7"/>
<path d="M452.78 300.67C451.98 300.19 451.09 299.96 450.12 299.96C449.15 299.96 448.26 300.2 447.46 300.67C446.66 301.15 446.02 301.78 445.55 302.58C445.08 303.38 444.84 304.27 444.84 305.24C444.84 306.21 445.08 307.1 445.55 307.9C446.02 308.7 446.66 309.34 447.46 309.81C448.26 310.29 449.15 310.52 450.12 310.52C451.09 310.52 451.98 310.28 452.78 309.81C453.58 309.33 454.22 308.7 454.69 307.9C455.17 307.1 455.4 306.21 455.4 305.24C455.4 304.27 455.16 303.38 454.69 302.58C454.22 301.79 453.58 301.15 452.78 300.67ZM454.04 307.53C453.63 308.22 453.09 308.76 452.4 309.17C451.71 309.58 450.95 309.78 450.12 309.78C449.29 309.78 448.53 309.58 447.84 309.17C447.15 308.76 446.61 308.22 446.2 307.53C445.79 306.84 445.59 306.08 445.59 305.25C445.59 304.42 445.79 303.66 446.2 302.97C446.61 302.28 447.15 301.74 447.84 301.33C448.53 300.92 449.29 300.72 450.12 300.72C450.95 300.72 451.71 300.92 452.4 301.33C453.09 301.74 453.63 302.29 454.04 302.97C454.45 303.66 454.65 304.42 454.65 305.25C454.65 306.08 454.44 306.84 454.04 307.53Z" fill="#ffdee7"/>
<path d="M480.11 300.14L475.88 305.82L471.64 300.14H470.77V310.35H471.53V301.25L475.88 307.09L480.22 301.25V310.35H480.99V300.14H480.11Z" fill="#ffdee7"/>
<path d="M197.04 205.92L190.9 282.06C190.9 282.06 189.91 299.83 185.46 310.8H173.61C175.94 306.88 178.15 297.22 179.5 290.06H166.24L160.09 205.92H170.41L175.7 278.24H180.88L186.71 205.92H197.04Z" fill="#ffdee7"/>
<path d="M231.15 205.87V255.14C231.15 264.02 224.87 271.24 217.15 271.24H211.75V290.02H201.49V205.86L231.15 205.87ZM220.89 217.66H211.75V259.44H217.15C219.22 259.44 220.89 257.51 220.89 255.14V217.66Z" fill="#ffdee7"/>
<path d="M266.53 205.87V290.03H256.27V274.51C251.02 277.08 247.32 283.05 247.32 290.03L247.29 290.02V290.03H237.03V221.98C237.03 213.1 243.31 205.88 251.03 205.88H266.53V205.87ZM256.27 217.67H251.03C248.96 217.67 247.29 219.6 247.29 221.97V267.4C250.59 264.34 253.59 262.85 256.27 262.1V217.67Z" fill="#ffdee7"/>
<path d="M304.38 205.87V290.03H294.1V217.68H292.08C289.78 217.68 288.51 220.22 288.3 222.61L283.53 290.03H269.45V278.23H274.04L278.09 221.39C278.88 212.4 284.77 205.87 292.1 205.87H304.38Z" fill="#ffdee7"/>
<path d="M331.23 289.98H320.6V290.03H310.32V205.87H320.6V257.98H324.9C329.09 257.98 338.87 259.78 338.87 278.01L338.89 290.03H331.24L331.23 289.98ZM329.25 278.23C329.25 272.39 327.1 269.78 324.9 269.78H320.6V278.23H329.25Z" fill="#ffdee7"/>
<path d="M363.85 237.79V217.61H354.92V274.01C354.92 276.37 356.59 278.29 358.64 278.29H363.85V259.37H374.06V290.03H358.64C350.96 290.03 344.71 282.84 344.71 274.01V205.87H374.06V237.79H363.85Z" fill="#ffdee7"/>
<path d="M408.53 261.85L411.13 290.03H400.8L398.31 263.07C398.1 260.68 396.83 258.14 394.53 258.14H390.23V290.03H379.95V205.87H390.23V226.12H394.53C395.74 226.12 397.39 226.12 398.39 220.61L400.87 205.87H411.34L408.46 222.93C406.09 235.99 398.71 237.92 394.52 237.92H390.22V246.33H394.52C401.85 246.33 407.74 252.86 408.53 261.85Z" fill="#ffdee7"/>
<path d="M448.01 205.92V290.03H437.75V246.56L427.42 262.09V290.02H417.16V205.91H427.42V244.82L437.75 229.29V205.91H448.01V205.92Z" fill="#ffdee7"/>
<path d="M484.7 205.92V290.03H474.44V246.56L464.11 262.09V290.02H453.85V205.91H464.11V244.82L474.44 229.29V205.91H484.7V205.92ZM476.11 197.12L462.44 202.47V190.94L476.11 185.59V197.12Z" fill="#ffdee7"/>
<path d="M483.9 292.42H192.75V293.29H483.9V292.42Z" fill="#ffdee7"/>
</g>
<defs>
<clipPath id="clip0_836_130">
<rect width="500" height="500" fill="#ffdee7"/>
</clipPath>
</defs>
</svg>
