<svg width="486" height="377" viewBox="0 0 486 377" fill="none" xmlns="http://www.w3.org/2000/svg">
<path d="M102.727 90.22H108.267H206.847L193.257 67.53H87.7168L102.727 90.22Z" fill="#F1F1F1" fill-opacity="0.945098"/>
<path d="M223.967 118.8L210.367 96.1101H106.617L121.627 118.8H223.967Z" fill="#F1F1F1" fill-opacity="0.945098"/>
<path d="M244.607 153.25H144.417L161.307 178.8H259.917L244.607 153.25Z" fill="#F1F1F1" fill-opacity="0.945098"/>
<path d="M227.487 124.68H125.517L140.527 147.37H241.087L227.487 124.68Z" fill="#F1F1F1" fill-opacity="0.945098"/>
<path d="M90.2069 61.6501H189.727L174.107 35.5701H66.5869L83.8269 61.6501H90.2069Z" fill="#F1F1F1" fill-opacity="0.945098"/>
<path d="M483.837 8.21C481.067 3.07 475.927 0 470.087 0H15.6569C9.81694 0 4.67694 3.07 1.90694 8.21C-0.863057 13.35 -0.603057 19.33 2.60694 24.21L229.817 369.28C232.717 373.68 237.597 376.31 242.867 376.31C248.137 376.31 253.017 373.68 255.917 369.28L483.137 24.21C486.347 19.33 486.607 13.35 483.837 8.21ZM476.307 19.71L249.097 364.79C247.697 366.92 245.427 368.14 242.877 368.14C240.327 368.14 238.057 366.92 236.657 364.79L9.43694 19.71C7.90694 17.38 7.77694 14.53 9.09694 12.08C10.4169 9.63 12.8669 8.17 15.6569 8.17H470.087C472.867 8.17 475.327 9.63 476.647 12.08C477.967 14.54 477.837 17.39 476.307 19.71Z" fill="#F1F1F1" fill-opacity="0.945098"/>
<path d="M455.927 12.5601H29.8171C26.1771 12.5601 22.8471 14.5501 21.1171 17.7501C19.3871 20.9501 19.5571 24.8301 21.5671 27.8701L234.617 351.43C236.447 354.22 239.537 355.88 242.867 355.88C246.197 355.88 249.287 354.22 251.117 351.43L464.167 27.8701C466.167 24.8301 466.337 20.9501 464.617 17.7501C462.897 14.5501 459.567 12.5601 455.927 12.5601ZM457.347 23.3801L244.297 346.94C243.857 347.61 243.217 347.71 242.867 347.71C242.527 347.71 241.877 347.61 241.437 346.94L182.877 258L287.637 243.39L426.187 35.5701L317.067 51.3501L249.547 152.28L269.457 186.1H226.917L180.867 254.94L28.3971 23.3801C27.9071 22.6401 28.1371 21.9601 28.3171 21.6301C28.4971 21.2901 28.9371 20.7301 29.8171 20.7301H455.917C456.807 20.7301 457.237 21.2901 457.417 21.6301C457.607 21.9601 457.837 22.6401 457.347 23.3801Z" fill="#F1F1F1" fill-opacity="0.945098"/>
</svg>
