<svg width="500" height="500" viewBox="0 0 500 500" fill="#ffdee7" xmlns="http://www.w3.org/2000/svg">
<g clip-path="url(#clip0_837_130)">
<path d="M72.3499 294.08H78.3299V307.85H79.4199V294.08H85.3999V292.99H72.3499V294.08Z" fill="##ffdee7"/>
<path d="M117.97 293.77C116.81 293.08 115.51 292.73 114.1 292.73C112.68 292.73 111.39 293.08 110.23 293.77C109.07 294.46 108.14 295.39 107.44 296.56C106.74 297.73 106.4 299.02 106.4 300.43C106.4 301.85 106.75 303.14 107.44 304.3C108.13 305.46 109.06 306.39 110.23 307.09C111.39 307.78 112.69 308.13 114.1 308.13C115.52 308.13 116.81 307.78 117.97 307.09C119.13 306.4 120.06 305.47 120.76 304.3C121.45 303.14 121.8 301.84 121.8 300.43C121.8 299.01 121.45 297.72 120.76 296.56C120.06 295.39 119.14 294.46 117.97 293.77ZM119.8 303.74C119.21 304.74 118.42 305.53 117.42 306.12C116.42 306.71 115.32 307.01 114.1 307.01C112.88 307.01 111.78 306.71 110.78 306.12C109.78 305.53 108.99 304.74 108.4 303.74C107.81 302.74 107.51 301.64 107.51 300.42C107.51 299.2 107.81 298.1 108.4 297.1C108.99 296.1 109.78 295.3 110.78 294.71C111.78 294.12 112.88 293.82 114.1 293.82C115.32 293.82 116.42 294.12 117.42 294.71C118.42 295.31 119.21 296.1 119.8 297.1C120.39 298.1 120.69 299.2 120.69 300.42C120.69 301.64 120.39 302.75 119.8 303.74Z" fill="##ffdee7"/>
<path d="M155.72 293.74C154.56 293.05 153.26 292.7 151.85 292.7C150.51 292.7 149.28 293.01 148.16 293.63C147.04 294.25 146.13 295.09 145.43 296.14C144.73 297.19 144.31 298.38 144.18 299.7C144.16 299.98 144.15 305.35 144.15 315.82H145.26V304.47C146.37 305.84 147.44 306.79 148.47 307.31C149.51 307.83 150.63 308.09 151.84 308.09C153.26 308.09 154.55 307.74 155.71 307.04C156.87 306.34 157.8 305.41 158.5 304.25C159.19 303.09 159.54 301.8 159.54 300.39C159.54 298.97 159.19 297.68 158.5 296.52C157.81 295.36 156.89 294.43 155.72 293.74ZM157.55 303.7C156.96 304.7 156.17 305.5 155.17 306.09C154.17 306.68 153.07 306.98 151.85 306.98C150.64 306.98 149.53 306.68 148.53 306.09C147.53 305.5 146.74 304.7 146.15 303.7C145.56 302.7 145.26 301.6 145.26 300.4C145.26 299.19 145.56 298.08 146.15 297.08C146.74 296.08 147.53 295.28 148.53 294.69C149.53 294.09 150.63 293.8 151.85 293.8C153.06 293.8 154.17 294.1 155.17 294.69C156.17 295.29 156.96 296.08 157.55 297.08C158.14 298.08 158.44 299.18 158.44 300.4C158.43 301.6 158.14 302.7 157.55 303.7Z" fill="##ffdee7"/>
<path d="M181.77 307.85H182.89V294.08H189.89V292.99H181.77V307.85Z" fill="##ffdee7"/>
<path d="M222.9 293.77C221.74 293.08 220.44 292.73 219.03 292.73C217.62 292.73 216.32 293.08 215.16 293.77C214 294.46 213.07 295.39 212.37 296.56C211.67 297.73 211.33 299.02 211.33 300.43C211.33 301.85 211.68 303.14 212.37 304.3C213.06 305.46 213.99 306.39 215.16 307.09C216.32 307.78 217.62 308.13 219.03 308.13C220.44 308.13 221.74 307.78 222.9 307.09C224.06 306.4 224.99 305.47 225.69 304.3C226.38 303.14 226.73 301.84 226.73 300.43C226.73 299.01 226.38 297.72 225.69 296.56C225 295.4 224.06 294.46 222.9 293.77ZM224.73 303.74C224.14 304.74 223.35 305.53 222.35 306.12C221.35 306.71 220.25 307.01 219.03 307.01C217.81 307.01 216.71 306.71 215.71 306.12C214.71 305.53 213.92 304.74 213.33 303.74C212.74 302.74 212.44 301.64 212.44 300.42C212.44 299.2 212.74 298.1 213.33 297.1C213.92 296.1 214.71 295.3 215.71 294.71C216.71 294.11 217.81 293.82 219.03 293.82C220.25 293.82 221.35 294.12 222.35 294.71C223.35 295.31 224.14 296.1 224.73 297.1C225.32 298.1 225.62 299.2 225.62 300.42C225.62 301.64 225.32 302.75 224.73 303.74Z" fill="##ffdee7"/>
<path d="M258.86 298.62C259.48 297.78 259.79 297 259.79 296.29C259.79 295.67 259.63 295.1 259.32 294.58C259.02 294.1 258.62 293.71 258.13 293.42C257.64 293.13 257.09 292.99 256.49 292.99H249.08V307.85H257.58C258.3 307.85 258.96 307.71 259.58 307.42C260.19 307.13 260.72 306.73 261.16 306.21C261.9 305.35 262.27 304.34 262.27 303.17C262.27 302.01 261.9 301 261.16 300.13C260.64 299.52 259.88 299.02 258.86 298.62ZM250.19 294.08H256.49C257.09 294.08 257.61 294.29 258.04 294.72C258.47 295.15 258.68 295.67 258.68 296.28C258.68 296.88 258.47 297.4 258.04 297.83C257.61 298.26 257.1 298.47 256.49 298.47H250.19V294.08ZM260.12 305.71C259.42 306.41 258.57 306.76 257.58 306.76H250.19V299.59H257.58C258.57 299.59 259.41 299.94 260.12 300.64C260.82 301.34 261.17 302.18 261.17 303.17C261.17 304.16 260.82 305.01 260.12 305.71Z" fill="##ffdee7"/>
<path d="M301.6 292.99H300.49V307.85H301.6V292.99Z" fill="##ffdee7"/>
<path d="M293.63 298.79C293.1 298.59 292.55 298.48 291.97 298.48H285.63V292.99H284.52V307.85H291.98C292.69 307.85 293.35 307.71 293.97 307.42C294.59 307.13 295.11 306.73 295.54 306.21C296.29 305.35 296.67 304.34 296.67 303.17C296.67 302.01 296.29 301 295.54 300.13C295.01 299.52 294.38 299.07 293.63 298.79ZM294.5 305.71C293.8 306.41 292.96 306.76 291.97 306.76H285.63V299.59H291.97C292.96 299.59 293.8 299.94 294.5 300.64C295.2 301.34 295.55 302.18 295.55 303.17C295.54 304.16 295.19 305.01 294.5 305.71Z" fill="##ffdee7"/>
<path d="M336.8 301.12C336.8 302.55 336.32 303.8 335.37 304.87C334.85 305.45 334.23 305.91 333.51 306.25C332.79 306.59 332 306.76 331.17 306.76C329.61 306.76 328.29 306.21 327.19 305.11C326.1 304.01 325.55 302.68 325.55 301.12V292.99H324.44V301.12C324.44 302.83 325 304.31 326.11 305.56C326.73 306.28 327.48 306.84 328.35 307.24C329.22 307.64 330.16 307.84 331.17 307.84C332.18 307.84 333.12 307.64 333.99 307.24C334.86 306.84 335.8 306.06 336.81 304.91V307.84H337.9V292.98H336.81V301.12H336.8Z" fill="##ffdee7"/>
<path d="M330.91 289.22C332.04 289.22 333.01 288.85 333.83 288.1C334.65 287.35 335.11 286.54 335.21 285.64H334.08C333.97 286.25 333.62 286.82 333.02 287.33C332.42 287.85 331.72 288.1 330.91 288.1C330.09 288.1 329.39 287.84 328.79 287.33C328.19 286.81 327.84 286.25 327.72 285.64H326.59C326.7 286.53 327.16 287.35 327.97 288.1C328.78 288.85 329.77 289.22 330.91 289.22Z" fill="##ffdee7"/>
<path d="M402.37 295.68C401.67 294.84 400.83 294.18 399.84 293.69C398.85 293.2 397.78 292.96 396.62 292.96C395.26 292.96 394.01 293.3 392.88 293.97C391.75 294.64 390.85 295.54 390.18 296.66C389.51 297.78 389.17 299.03 389.17 300.4C389.17 302.45 389.91 304.21 391.38 305.68C392.06 306.35 392.84 306.87 393.74 307.25C394.64 307.63 395.59 307.82 396.61 307.82C397.63 307.82 398.59 307.63 399.48 307.25C400.38 306.87 401.16 306.35 401.84 305.68C402.02 305.49 402.39 305.06 402.93 304.41V308.4C402.93 309.56 402.65 310.62 402.08 311.57C401.51 312.53 400.75 313.29 399.79 313.86C398.83 314.43 397.77 314.72 396.61 314.72C394.98 314.72 393.64 314.25 392.6 313.3L391.83 314.07C392.32 314.53 393 314.94 393.86 315.29C394.72 315.64 395.64 315.81 396.61 315.81C398.25 315.81 399.73 315.31 401.05 314.31C402.37 313.31 403.28 312.01 403.77 310.4C403.95 309.73 404.04 309.06 404.04 308.39V300.39C404.04 299.49 403.89 298.64 403.6 297.84C403.32 297.04 402.91 296.32 402.37 295.68ZM402.39 303.02C402.08 303.7 401.73 304.23 401.34 304.61C400.75 305.26 400.05 305.78 399.24 306.16C398.43 306.54 397.56 306.72 396.62 306.72C395.68 306.72 394.81 306.53 394 306.16C393.19 305.78 392.49 305.27 391.9 304.61C391.51 304.22 391.16 303.69 390.85 303.02C390.47 302.2 390.29 301.33 390.29 300.4C390.29 299.23 390.57 298.17 391.14 297.21C391.71 296.25 392.47 295.49 393.43 294.92C394.39 294.35 395.45 294.06 396.62 294.06C397.78 294.06 398.84 294.35 399.8 294.92C400.76 295.49 401.53 296.26 402.09 297.21C402.66 298.17 402.94 299.23 402.94 300.4C402.95 301.33 402.76 302.2 402.39 303.02Z" fill="##ffdee7"/>
<path d="M438.23 293.77C437.07 293.08 435.77 292.73 434.36 292.73C432.94 292.73 431.65 293.08 430.49 293.77C429.33 294.46 428.4 295.39 427.7 296.56C427.01 297.72 426.66 299.02 426.66 300.43C426.66 301.85 427.01 303.14 427.7 304.3C428.39 305.46 429.32 306.39 430.49 307.09C431.65 307.78 432.95 308.13 434.36 308.13C435.78 308.13 437.07 307.78 438.23 307.09C439.39 306.4 440.32 305.47 441.02 304.3C441.71 303.14 442.06 301.84 442.06 300.43C442.06 299.01 441.71 297.72 441.02 296.56C440.32 295.39 439.4 294.46 438.23 293.77ZM440.06 303.74C439.47 304.74 438.68 305.53 437.68 306.12C436.68 306.71 435.58 307.01 434.36 307.01C433.14 307.01 432.04 306.71 431.04 306.12C430.04 305.53 429.25 304.74 428.66 303.74C428.07 302.74 427.77 301.64 427.77 300.42C427.77 299.2 428.07 298.1 428.66 297.1C429.25 296.1 430.04 295.3 431.04 294.71C432.04 294.12 433.14 293.82 434.36 293.82C435.58 293.82 436.68 294.12 437.68 294.71C438.68 295.31 439.47 296.1 440.06 297.1C440.65 298.1 440.95 299.2 440.95 300.42C440.95 301.64 440.65 302.75 440.06 303.74Z" fill="##ffdee7"/>
<path d="M478.02 292.99L471.85 301.26L465.69 292.99H464.41V307.85H465.52V294.61L471.85 303.12L478.18 294.61V307.85H479.29V292.99H478.02Z" fill="##ffdee7"/>
<path d="M65.9099 155.83L56.9699 266.68C56.9699 266.68 55.5299 292.55 49.0499 308.53H31.8099C35.1999 302.82 38.4299 288.76 40.3899 278.33H21.0899L12.1299 155.83H27.1499L34.8499 261.12H42.3899L50.8799 155.83H65.9099Z" fill="##ffdee7"/>
<path d="M115.57 155.75V227.48C115.57 240.41 106.43 250.92 95.1799 250.92H87.3199V278.27H72.3899V155.75H115.57ZM100.64 172.92H87.3299V233.74H95.1899C98.1999 233.74 100.64 230.93 100.64 227.47V172.92Z" fill="##ffdee7"/>
<path d="M167.08 155.75V278.27H152.14V255.68C144.49 259.42 139.11 268.12 139.11 278.27L139.07 278.26V278.27H124.14V179.2C124.14 166.27 133.29 155.76 144.53 155.76H167.08V155.75ZM152.15 172.93H144.52C141.51 172.93 139.07 175.74 139.07 179.2V245.33C143.87 240.88 148.24 238.7 152.15 237.62V172.93Z" fill="##ffdee7"/>
<path d="M222.18 155.75V278.28H207.21V172.95H204.28C200.93 172.95 199.08 176.64 198.78 180.13L191.83 278.28H171.32V261.1H178L183.89 178.35C185.04 165.26 193.62 155.76 204.29 155.76L222.18 155.75Z" fill="##ffdee7"/>
<path d="M261.27 278.2H245.79V278.28H230.82V155.75H245.79V231.61H252.05C258.15 231.61 272.39 234.23 272.39 260.77L272.42 278.27H261.28L261.27 278.2ZM258.39 261.09C258.39 252.59 255.26 248.79 252.05 248.79H245.79V261.09H258.39Z" fill="##ffdee7"/>
<path d="M308.77 202.22V172.84H295.76V254.95C295.76 258.39 298.19 261.18 301.18 261.18H308.77V233.64H323.63V278.27H301.18C290 278.27 280.9 267.8 280.9 254.94V155.74H323.63V202.21H308.77V202.22Z" fill="##ffdee7"/>
<path d="M373.81 237.25L377.6 278.27H362.55L358.92 239.03C358.61 235.55 356.76 231.85 353.42 231.85H347.16V278.27H332.19V155.75H347.16V185.23H353.42C355.18 185.23 357.58 185.23 359.04 177.21L362.65 155.76H377.9L373.71 180.6C370.26 199.61 359.51 202.43 353.41 202.43H347.15V214.67H353.41C364.08 214.66 372.66 224.16 373.81 237.25Z" fill="##ffdee7"/>
<path d="M431.28 155.82V278.27H416.35V214.99L401.31 237.6V278.27H386.37V155.82H401.31V212.47L416.35 189.86V155.83H431.28V155.82Z" fill="##ffdee7"/>
<path d="M484.7 155.82V278.27H469.77V214.99L454.73 237.6V278.27H439.79V155.82H454.73V212.47L469.77 189.86V155.83H484.7V155.82ZM472.2 143.01L452.29 150.8V134.01L472.2 126.22V143.01Z" fill="##ffdee7"/>
<path d="M483.54 281.75H59.6699V283.02H483.54V281.75Z" fill="##ffdee7"/>
</g>
<defs>
<clipPath id="clip0_837_130">
<rect width="500" height="500" fill="white"/>
</clipPath>
</defs>
</svg>
